<svg id="Layer_1" data-name="Layer 1" xmlns="http://www.w3.org/2000/svg" viewBox="0 0 276.21 105.87"><defs><style>.cls-1{fill:#fff;}</style></defs><title>Logo-White-Left</title><path class="cls-1" d="M120.33,23.81a25,25,0,0,0-2.78-8.34c-3.5-6.29-10-10.92-19.44-13.75-9-2.72-17-2.21-23.88,1.5-.6.32-1.19.66-1.76,1l-.66.43A36.41,36.41,0,0,0,60.37,18.07h0A36.52,36.52,0,0,0,48.92,4.68l-.65-.43c-.58-.37-1.17-.71-1.76-1C39.65-.49,31.63-1,22.63,1.72,13.22,4.55,6.68,9.18,3.19,15.47A24.8,24.8,0,0,0,.4,23.81,34.25,34.25,0,0,0,0,29.28,50.65,50.65,0,0,0,1.29,40a3.09,3.09,0,0,0,3.91,2.3l15.73-4.23a3.09,3.09,0,0,0,2.14-3.59L23,34c-2.39-8.94,1.56-11.9,5-12.86,3.11-.88,5.5-.65,7.52.89l.45.37c2.48,2.19,4.74,6.51,6.72,12.8L47,49.65a43.77,43.77,0,0,1,2,9.9A17.66,17.66,0,0,1,48.84,63c-.06.33-.14.66-.22,1a7.43,7.43,0,0,1-5.22,5.7c-4.37,1.6-8.64-1-10.85-5.77l-.67-2.23-.18-.62,4.54-1.37.22-.07a3.1,3.1,0,0,0,1.85-3.78L34.82,44.27,34.74,44l-.09-.32,0-.05a4,4,0,0,0-2.13-2,3.9,3.9,0,0,0-2.25-.21l-.45.11c-1.14.28-2.26.59-3.4.9l-20,5.38a5.23,5.23,0,0,0-1,.35A1.82,1.82,0,0,0,4.28,50a4.36,4.36,0,0,0,.14,1C6,56.77,7.52,62.61,9.12,68.44a23.79,23.79,0,0,0,2.52,6A25.6,25.6,0,0,0,19,82.16a31.83,31.83,0,0,0,9.56,4.4c4.06,1.17,8.13,2.32,12.16,3.58a29.75,29.75,0,0,1,10.85,6A49,49,0,0,1,60,105.36l.36.51h0l.36-.51a49,49,0,0,1,8.41-9.26,29.75,29.75,0,0,1,10.85-6c4-1.26,8.1-2.41,12.16-3.58a31.61,31.61,0,0,0,9.56-4.4,25.36,25.36,0,0,0,7.38-7.77,24.18,24.18,0,0,0,2.53-6c1.6-5.83,3.13-11.67,4.69-17.51a5.08,5.08,0,0,0,.15-1,1.85,1.85,0,0,0-1.08-1.84,5.83,5.83,0,0,0-1-.35L94.36,42.41c-1.13-.31-2.26-.62-3.4-.9l-.44-.11a3.95,3.95,0,0,0-4.38,2.25l0,.05L86,44l-.07.25-3.5,11.58a3.11,3.11,0,0,0,1.85,3.78l.22.07L89,61.07l-.19.62-.67,2.23c-2.2,4.8-6.48,7.37-10.85,5.77A7.42,7.42,0,0,1,72.12,64c-.09-.31-.16-.64-.23-1a18.47,18.47,0,0,1-.11-3.47,44.33,44.33,0,0,1,2-9.9L78.11,35.2c2-6.29,4.23-10.61,6.71-12.8l.45-.37c2-1.54,4.42-1.77,7.52-.89,3.39,1,7.34,3.92,5,12.86l-.08.5a3.08,3.08,0,0,0,2.13,3.59l15.73,4.23a3.09,3.09,0,0,0,3.91-2.3,50.65,50.65,0,0,0,1.29-10.74A33.12,33.12,0,0,0,120.33,23.81Z"/><path class="cls-1" d="M166,39.78a11.61,11.61,0,0,1-4.51,3,16.58,16.58,0,0,1-5.86,1c-3.62,0-6.44-1.13-8.45-3.37s-3-5.51-3.09-9.8V25q0-6.52,2.84-10c1.9-2.34,4.67-3.52,8.31-3.52q5.13,0,7.74,2.54t3,7.94H159.8c-.17-2-.59-3.37-1.26-4.1a4,4,0,0,0-3.12-1.09,4.07,4.07,0,0,0-3.74,1.88c-.78,1.26-1.19,3.26-1.21,6v5.71q0,4.32,1.28,6.27a4.68,4.68,0,0,0,4.24,2,5.58,5.58,0,0,0,3-.75l.56-.39V31.57h-4.46v-4.8H166Z"/><path class="cls-1" d="M181.32,43.35a9,9,0,0,1-.52-1.82,5.21,5.21,0,0,1-4.46,2.26,6.59,6.59,0,0,1-4.88-1.95,6.86,6.86,0,0,1-1.94-5.05,7.07,7.07,0,0,1,2.35-5.69c1.57-1.35,3.82-2,6.77-2.06h1.86V27.16a3.52,3.52,0,0,0-.54-2.23,1.92,1.92,0,0,0-1.58-.65c-1.53,0-2.3.89-2.3,2.68H170a6.81,6.81,0,0,1,2.44-5.36,9.05,9.05,0,0,1,6.16-2.11,8.37,8.37,0,0,1,6,2,7.56,7.56,0,0,1,2.11,5.73v11a11.75,11.75,0,0,0,.86,4.75v.36ZM177.71,39a3.49,3.49,0,0,0,1.73-.41,2.89,2.89,0,0,0,1.06-1V32.72H179a3.13,3.13,0,0,0-2.46,1,3.81,3.81,0,0,0-.9,2.66C175.67,38.11,176.35,39,177.71,39Z"/><path class="cls-1" d="M197.5,43.35h-6.15V10.09h6.15Z"/><path class="cls-1" d="M208.67,43.35h-6.15V10.09h6.15Z"/><path class="cls-1" d="M224.54,43.35a8.53,8.53,0,0,1-.51-1.82,5.24,5.24,0,0,1-4.47,2.26,6.59,6.59,0,0,1-4.88-1.95,6.86,6.86,0,0,1-1.94-5.05,7.1,7.1,0,0,1,2.35-5.69c1.57-1.35,3.82-2,6.77-2.06h1.86V27.16a3.52,3.52,0,0,0-.54-2.23,1.92,1.92,0,0,0-1.58-.65c-1.53,0-2.3.89-2.3,2.68h-6.12a6.8,6.8,0,0,1,2.43-5.36,9.07,9.07,0,0,1,6.16-2.11,8.37,8.37,0,0,1,6,2,7.53,7.53,0,0,1,2.11,5.73v11a11.56,11.56,0,0,0,.87,4.75v.36ZM220.93,39a3.46,3.46,0,0,0,1.73-.41,2.89,2.89,0,0,0,1.06-1V32.72h-1.47a3.13,3.13,0,0,0-2.46,1,3.81,3.81,0,0,0-.9,2.66C218.89,38.11,219.57,39,220.93,39Z"/><path class="cls-1" d="M239.9,19.92l.17,2.32a6.52,6.52,0,0,1,5.44-2.75q6,0,6.21,8.47V43.35h-6.15V28.41a5.45,5.45,0,0,0-.59-2.89,2.33,2.33,0,0,0-2.09-.9,2.85,2.85,0,0,0-2.6,1.71v17h-6.15V19.92Z"/><path class="cls-1" d="M263.24,14.16v5.76h3.14v4.59h-3.14V36.16a3.46,3.46,0,0,0,.38,1.91,1.7,1.7,0,0,0,1.46.52,5.76,5.76,0,0,0,1.45-.15l0,4.76a9.56,9.56,0,0,1-3.38.59q-5.92,0-6-6.81V24.51h-2.7V19.92h2.7V14.16Z"/><path class="cls-1" d="M166,84.13a11.61,11.61,0,0,1-4.51,3,16.58,16.58,0,0,1-5.86,1q-5.43,0-8.45-3.36c-2-2.25-3-5.51-3.09-9.8V69.3q0-6.52,2.84-10t8.31-3.52q5.13,0,7.74,2.53t3,7.95H159.8c-.17-2-.59-3.37-1.26-4.1a4,4,0,0,0-3.12-1.1,4.07,4.07,0,0,0-3.74,1.89c-.78,1.25-1.19,3.25-1.21,6v5.71q0,4.32,1.28,6.27a4.68,4.68,0,0,0,4.24,2,5.49,5.49,0,0,0,3-.76l.56-.39V75.92h-4.46V71.11H166Z"/><path class="cls-1" d="M181.32,87.7a9.24,9.24,0,0,1-.52-1.82,5.22,5.22,0,0,1-4.46,2.25,6.59,6.59,0,0,1-4.88-1.94,6.86,6.86,0,0,1-1.94-5,7.07,7.07,0,0,1,2.35-5.69c1.57-1.35,3.82-2,6.77-2.06h1.86V71.5a3.56,3.56,0,0,0-.54-2.23,2,2,0,0,0-1.58-.65c-1.53,0-2.3.9-2.3,2.69H170A6.8,6.8,0,0,1,172.39,66a9.05,9.05,0,0,1,6.16-2.11,8.37,8.37,0,0,1,6,2,7.56,7.56,0,0,1,2.11,5.73v11a11.7,11.7,0,0,0,.86,4.74v.37Zm-3.61-4.37a3.49,3.49,0,0,0,1.73-.41,2.89,2.89,0,0,0,1.06-1V77.07H179a3.13,3.13,0,0,0-2.46,1,3.81,3.81,0,0,0-.9,2.66C175.67,82.46,176.35,83.33,177.71,83.33Z"/><path class="cls-1" d="M196.83,64.27l.17,2.17a6.57,6.57,0,0,1,5.44-2.6A5,5,0,0,1,207.39,67a6.43,6.43,0,0,1,5.74-3.16q6.15,0,6.3,8.51V87.7h-6.12v-15a5.47,5.47,0,0,0-.57-2.9,2.08,2.08,0,0,0-1.9-.87c-1.14,0-2,.7-2.56,2.1l.05.74V87.7H202.2V72.78a5.9,5.9,0,0,0-.54-2.91,2.07,2.07,0,0,0-1.93-.9,2.8,2.8,0,0,0-2.51,1.71v17h-6.13V64.27Z"/><path class="cls-1" d="M233.42,88.13a9.59,9.59,0,0,1-7.36-2.81c-1.76-1.88-2.64-4.56-2.64-8.06V75.4q0-5.54,2.42-8.55a8.42,8.42,0,0,1,7-3c2.94,0,5.16.94,6.64,2.82s2.25,4.67,2.28,8.36v3H229.53a6.35,6.35,0,0,0,1.14,3.82,3.9,3.9,0,0,0,3.14,1.21,6.88,6.88,0,0,0,5.13-2.1l2.41,3.7a7.88,7.88,0,0,1-3.27,2.52A11.26,11.26,0,0,1,233.42,88.13Zm-3.85-14.37h6.13v-.57A6.46,6.46,0,0,0,235,70a2.4,2.4,0,0,0-2.25-1.08,2.55,2.55,0,0,0-2.33,1.15A8,8,0,0,0,229.57,73.76Z"/><path class="cls-1" d="M256.74,70.18l-2-.17a3.34,3.34,0,0,0-3.4,2.21V87.7h-6.15V64.27h5.78l.17,2.54q1.45-3,4-3a4.26,4.26,0,0,1,1.69.28Z"/><path class="cls-1" d="M270.26,81.42a1.91,1.91,0,0,0-.75-1.44,15,15,0,0,0-3.32-1.78A13.79,13.79,0,0,1,261,75a6,6,0,0,1-1.42-4.09,6.55,6.55,0,0,1,2.22-5.08,8.47,8.47,0,0,1,5.88-2,9.13,9.13,0,0,1,6.17,2,6.71,6.71,0,0,1,2.32,5.35H270c0-1.91-.8-2.86-2.38-2.86a2.21,2.21,0,0,0-1.61.61,2.27,2.27,0,0,0-.62,1.69A1.77,1.77,0,0,0,266.1,72a14.71,14.71,0,0,0,3.27,1.7,13.46,13.46,0,0,1,5.29,3.09,6.24,6.24,0,0,1,1.55,4.4,6.17,6.17,0,0,1-2.36,5,9.55,9.55,0,0,1-6.19,1.9,9.87,9.87,0,0,1-4.55-1A7.61,7.61,0,0,1,260,84.32a7.14,7.14,0,0,1-1.12-3.87h5.83a3.64,3.64,0,0,0,.74,2.4,2.91,2.91,0,0,0,2.31.8C269.43,83.65,270.26,82.91,270.26,81.42Z"/></svg>